<svg width="16" height="24" viewBox="0 0 16 24" fill="none" xmlns="http://www.w3.org/2000/svg">
<path d="M7.90156 14.3281C7.91326 14.3431 7.92819 14.3551 7.94525 14.3635C7.96231 14.3718 7.98103 14.3761 8 14.3761C8.01897 14.3761 8.03769 14.3718 8.05475 14.3635C8.0718 14.3551 8.08674 14.3431 8.09844 14.3281L9.84844 12.1141C9.9125 12.0328 9.85469 11.9125 9.75 11.9125H8.59219V6.625C8.59219 6.55625 8.53594 6.5 8.46719 6.5H7.52969C7.46094 6.5 7.40469 6.55625 7.40469 6.625V11.9109H6.25C6.14531 11.9109 6.0875 12.0312 6.15156 12.1125L7.90156 14.3281ZM13.7188 13.7812H12.7812C12.7125 13.7812 12.6562 13.8375 12.6562 13.9062V16.3125H3.34375V13.9062C3.34375 13.8375 3.2875 13.7812 3.21875 13.7812H2.28125C2.2125 13.7812 2.15625 13.8375 2.15625 13.9062V17C2.15625 17.2766 2.37969 17.5 2.65625 17.5H13.3438C13.6203 17.5 13.8438 17.2766 13.8438 17V13.9062C13.8438 13.8375 13.7875 13.7812 13.7188 13.7812Z" fill="white"/>
</svg>
